<svg width="162" height="38" viewBox="0 0 162 38" fill="none" xmlns="http://www.w3.org/2000/svg">
<path fill-rule="evenodd" clip-rule="evenodd" d="M97 14.8423C97 13.7208 97.377 12.6319 98.0704 11.7506L104.241 3.90831C105.189 2.70339 106.637 2 108.17 2H157C159.761 2 162 4.23858 162 7V20.8024C162 22.0292 161.549 23.2132 160.733 24.129L155.209 30.3266C154.261 31.3912 152.903 32 151.477 32H102C99.2386 32 97 29.7614 97 27V14.8423Z" fill="black"/>
<path fill-rule="evenodd" clip-rule="evenodd" d="M107.936 11.4524C108.094 11.2937 108.284 11.2143 108.505 11.2143H117.894V9H107.888C107.256 9 106.671 9.15873 106.134 9.47619C105.596 9.79365 105.17 10.2183 104.854 10.75C104.537 11.2817 104.379 11.8651 104.379 12.5V14.3095C104.379 14.9444 104.537 15.5278 104.854 16.0595C105.17 16.5913 105.596 17.0159 106.134 17.3333C106.671 17.6508 107.256 17.8095 107.888 17.8095H113.982C114.219 17.8095 114.413 17.8849 114.563 18.0357C114.713 18.1865 114.788 18.373 114.788 18.5952V22.0238C114.788 22.246 114.713 22.4365 114.563 22.5952C114.413 22.754 114.219 22.8333 113.982 22.8333H104V25H114.622C115.254 25 115.839 24.8452 116.377 24.5357C116.914 24.2262 117.337 23.8016 117.645 23.2619C117.953 22.7222 118.107 22.1429 118.107 21.5238V19.0952C118.107 18.4603 117.953 17.873 117.645 17.3333C117.337 16.7937 116.914 16.369 116.377 16.0595C115.839 15.75 115.254 15.5952 114.622 15.5952H108.505C108.284 15.5952 108.094 15.5159 107.936 15.3571C107.778 15.1984 107.699 15.0079 107.699 14.7857V12.0238C107.699 11.8016 107.778 11.6111 107.936 11.4524ZM123.324 9.04762H120.004V24.9762H123.324V9.04762ZM130.84 11.2143H124.746V9H140.276V11.2143H134.183V24.9762H130.84V11.2143ZM145.232 11.4643C145.39 11.3135 145.579 11.2381 145.801 11.2381H155V9.04762H145.16C144.544 9.04762 143.967 9.20238 143.43 9.5119C142.892 9.82143 142.469 10.246 142.161 10.7857C141.853 11.3254 141.699 11.9127 141.699 12.5476V21.5C141.699 22.119 141.853 22.6944 142.161 23.2262C142.469 23.7579 142.888 24.1825 143.418 24.5C143.947 24.8175 144.528 24.9762 145.16 24.9762H155V22.7857H145.801C145.579 22.7857 145.39 22.7063 145.232 22.5476C145.073 22.3889 144.994 22.2063 144.994 22V18.119H154.312V15.9048H144.994V12.0476C144.994 11.8095 145.073 11.6151 145.232 11.4643Z" fill="white"/>
<path d="M2.244 8.989H11.583C13.915 8.989 15.719 9.22 16.995 9.682C19.349 10.54 20.922 12.113 21.714 14.401C22.308 16.161 22.605 18.042 22.605 20.044C22.605 22.024 22.319 23.894 21.747 25.654C21.175 27.458 20.229 28.789 18.909 29.647C18.073 30.175 17.149 30.538 16.137 30.736C15.147 30.912 13.629 31 11.583 31H2.244V8.989ZM6.93 12.916V27.073H11.583C13.629 27.073 15.048 26.622 15.84 25.72C16.324 25.148 16.709 24.345 16.995 23.311C17.303 22.277 17.457 21.177 17.457 20.011C17.457 18.713 17.281 17.525 16.929 16.447C16.577 15.369 16.115 14.566 15.543 14.038C14.707 13.29 13.387 12.916 11.583 12.916H6.93ZM42.3661 8.989V12.916H36.2611C34.6771 12.916 33.5221 13.026 32.7961 13.246C32.0701 13.466 31.4651 13.895 30.9811 14.533C30.6511 14.973 30.4201 15.413 30.2881 15.853C30.1781 16.293 30.0791 17.041 29.9911 18.097H42.3661V22.024H29.9911C30.1671 23.916 30.7281 25.236 31.6741 25.984C32.6201 26.71 34.2261 27.073 36.4921 27.073H42.3661V31H36.2611C34.6111 31 33.1591 30.901 31.9051 30.703C29.9251 30.373 28.3521 29.504 27.1861 28.096C25.5141 26.072 24.6781 23.333 24.6781 19.879C24.6781 16.051 25.8551 13.07 28.2091 10.936C29.0231 10.21 29.8811 9.704 30.7831 9.418C31.7071 9.132 32.9391 8.989 34.4791 8.989H42.3661ZM52.8041 8.989L58.2821 26.182L64.0571 8.989H70.8881V31H66.4331V14.5L60.6911 31H55.8731L50.4281 14.5V31H45.9731V8.989H52.8041ZM85.0673 8.857C87.2673 8.857 89.2033 9.231 90.8753 9.979C92.8333 10.881 94.2083 12.388 95.0003 14.5C95.6163 16.15 95.9243 18.086 95.9243 20.308C95.9243 22.552 95.5503 24.499 94.8023 26.149C93.8563 28.107 92.4043 29.482 90.4463 30.274C88.9943 30.846 87.3223 31.132 85.4303 31.132C82.9443 31.132 80.7883 30.67 78.9623 29.746C77.4223 28.976 76.2453 27.766 75.4313 26.116C74.6173 24.466 74.2103 22.464 74.2103 20.11C74.2103 15.908 75.2553 12.916 77.3453 11.134C79.1053 9.638 81.6793 8.879 85.0673 8.857ZM85.1003 12.553C82.9443 12.553 81.4043 13.257 80.4803 14.665C79.7323 15.765 79.3583 17.536 79.3583 19.978C79.3583 22.552 79.8203 24.444 80.7443 25.654C81.6683 26.842 83.1313 27.436 85.1333 27.436C87.0693 27.436 88.4883 26.831 89.3903 25.621C90.3143 24.411 90.7763 22.541 90.7763 20.011C90.7763 17.701 90.4023 15.941 89.6543 14.731C88.7963 13.301 87.2783 12.575 85.1003 12.553Z" fill="#FF2424"/>
</svg>
